<svg width="550" height="612" fill="none" xmlns="http://www.w3.org/2000/svg"><g clip-path="url(#a)" fill="#fff"><path d="m469.041 480.789-158.507 32.327c-8.542 1.742-18.28-.669-28.602-3.221-9.079-2.25-18.448-4.562-24.855-3.255l-33.37 6.806a8.511 8.511 0 0 1-6.397-1.241 8.511 8.511 0 0 1-2.407-11.798 8.516 8.516 0 0 1 5.401-3.646l33.37-6.806c10.161-2.072 21.436.72 32.343 3.414 8.033 1.976 16.326 4.039 21.114 3.062l158.507-32.327a17.046 17.046 0 0 0-6.806-33.37 8.512 8.512 0 0 1-8.803-13.038 8.515 8.515 0 0 1 5.401-3.647l8.342-1.701a17.045 17.045 0 0 0-6.806-33.37 8.517 8.517 0 0 1-10.044-6.641 8.511 8.511 0 0 1 1.241-6.397 8.511 8.511 0 0 1 5.4-3.647l8.343-1.701a17.046 17.046 0 0 0-6.806-33.37l-8.342 1.701a8.514 8.514 0 1 1-3.403-16.685 17.046 17.046 0 0 0-6.806-33.369l-158.573 32.34a8.509 8.509 0 0 1-9.506-4.945 8.514 8.514 0 0 1-.7-3.766c-.001-.347 1.372-34.603-6.584-73.612-8.851-43.397-27.527-46.436-43.716-44.177l11.873 58.214a8.548 8.548 0 0 1-.122 3.918l-20.503 76.286a8.518 8.518 0 1 1-16.454-4.412l20.009-74.362-13.21-64.77a8.515 8.515 0 0 1 6.641-10.044c17.453-3.56 58.348-11.9 72.18 55.924 5.714 28.014 6.878 53.237 7.017 66.955l148.245-30.234c18.404-3.754 36.422 8.16 40.176 26.564 1.664 8.159.238 16.253-3.466 23.056a34.042 34.042 0 0 1 14.332 9.754A34.059 34.059 0 0 1 481.521 369a34.058 34.058 0 0 1 1.866 51.756c6.073 4.809 10.554 11.699 12.218 19.857 3.753 18.404-8.16 36.423-26.564 40.176Z"/><path d="m227.961 529.957-59.248 12.083-3.403-16.685 50.054-10.208-30.625-150.164-50.055 10.208-3.403-16.685 59.248-12.083c4.622-.943 8.196 1.926 9.132 6.514l34.029 166.849c.946 4.639-1.108 9.228-5.729 10.171Z"/><path d="M-3.373 614.141a8.517 8.517 0 0 1-10.044-6.641 8.513 8.513 0 0 1 6.641-10.044l178.891-38.731-37.431-183.534-140.97 28.751a8.517 8.517 0 0 1-10.045-6.641 8.513 8.513 0 0 1 6.641-10.044l150.164-30.625c4.622-.943 8.196 1.925 9.132 6.514l40.835 200.219c.946 4.638-1.108 9.228-5.729 10.17L-3.373 614.141ZM465.309 377.277l-83.425 17.014c-18.403 3.753-36.422-8.161-40.175-26.564-3.754-18.404 8.16-36.422 26.564-40.176l83.424-17.014c18.404-3.753 36.422 8.161 40.176 26.564 3.753 18.403-8.161 36.422-26.564 40.176Zm-93.633-33.041a17.045 17.045 0 0 0 6.805 33.37l83.425-17.014a17.046 17.046 0 0 0-6.806-33.37l-83.424 17.014Zm97.365 136.553-50.055 10.208c-18.403 3.754-36.422-8.16-40.175-26.564-3.754-18.403 8.16-36.422 26.564-40.175l50.055-10.209c18.403-3.753 36.422 8.161 40.175 26.564 3.753 18.404-8.161 36.423-26.564 40.176Zm-60.263-39.846a17.043 17.043 0 0 0-5.568 30.537 17.045 17.045 0 0 0 12.373 2.833l50.055-10.209a17.046 17.046 0 0 0-6.806-33.37l-50.054 10.209Z"/><path d="m467.175 429.033-66.74 13.611c-18.403 3.754-36.422-8.16-40.175-26.564-3.754-18.403 8.16-36.422 26.564-40.175l66.739-13.612c18.404-3.753 36.423 8.161 40.176 26.564 3.753 18.404-8.161 36.422-26.564 40.176Zm-76.948-36.443a17.043 17.043 0 0 0-5.568 30.537 17.044 17.044 0 0 0 12.373 2.832l66.74-13.611a17.045 17.045 0 0 0-6.806-33.37l-66.739 13.612Zm56.531-63.667-66.74 13.612c-18.403 3.753-36.422-8.161-40.175-26.564-3.754-18.404 8.16-36.423 26.564-40.176l66.739-13.611c18.404-3.754 36.422 8.16 40.176 26.564 3.753 18.403-8.161 36.422-26.564 40.175Zm-76.949-36.443a17.045 17.045 0 0 0 6.806 33.37l66.74-13.612a17.046 17.046 0 0 0-6.806-33.369l-66.74 13.611Zm-90.988 141.148a8.52 8.52 0 0 1-6.025-.952 8.516 8.516 0 0 1 .777-15.148c18.433-8.469 29.112-27.939 28.587-52.076-.541-24.463-12.776-47.046-29.098-53.71a8.52 8.52 0 0 1-4.821-4.554 8.52 8.52 0 0 1-.091-6.631 8.503 8.503 0 0 1 4.693-4.685 8.514 8.514 0 0 1 6.631.103c23.049 9.394 39 37.162 39.709 69.099.686 31.142-13.705 56.531-38.491 67.929a7.785 7.785 0 0 1-1.871.625ZM262.638 138.098a8.479 8.479 0 0 0 6.057-4.815l14.115-30.998a8.5 8.5 0 0 0 .229-6.508 8.505 8.505 0 0 0-7.67-5.526 8.511 8.511 0 0 0-8.041 4.972l-14.116 30.998a8.503 8.503 0 0 0 1.064 8.835 8.49 8.49 0 0 0 8.362 3.042Zm25.821 27.841a8.514 8.514 0 0 0 11.607 3.228l29.631-16.783a8.518 8.518 0 0 0 3.213-11.604 8.512 8.512 0 0 0-11.604-3.212l-29.632 16.784a8.483 8.483 0 0 0-4.01 5.127 8.506 8.506 0 0 0 .795 6.46Zm-118.527 67.134a8.495 8.495 0 0 0-5.133-4.023 8.459 8.459 0 0 0-3.317-.241 8.465 8.465 0 0 0-3.154 1.052l-29.632 16.783a8.497 8.497 0 0 0 5.907 15.757 8.769 8.769 0 0 0 2.488-.924l29.632-16.784a8.546 8.546 0 0 0 3.209-11.62Zm170.195-29.55-33.837-3.839a8.517 8.517 0 0 0-9.512 7.489 8.51 8.51 0 0 0 4.397 8.442 8.52 8.52 0 0 0 3.195.988l33.838 3.839a8.512 8.512 0 0 0 9.328-7.51 8.518 8.518 0 0 0-7.409-9.409Zm-221.864-8.035 33.838 3.839a8.524 8.524 0 0 0 6.268-1.802 8.527 8.527 0 0 0 1.355-11.976 8.527 8.527 0 0 0-5.707-3.157l-33.838-3.839a8.52 8.52 0 1 0-1.916 16.935Zm35.024-77.006a8.52 8.52 0 0 0-6.198-2.445 8.506 8.506 0 0 0-6.062 2.767 8.515 8.515 0 0 0 .779 12.238l25.127 22.995a8.485 8.485 0 0 0 9.349 1.435 8.491 8.491 0 0 0 2.672-1.975 8.514 8.514 0 0 0-.54-12.021l-25.127-22.994Zm52.088-35.77a8.515 8.515 0 0 0-6.641 10.043l6.806 33.37a8.516 8.516 0 0 0 10.044 6.641 8.514 8.514 0 0 0 6.641-10.044l-6.806-33.37a8.512 8.512 0 0 0-10.044-6.64Z"/></g><defs><clipPath id="a"><path fill="#fff" transform="rotate(-11.527 500.657 595.985)" d="M0 0h560.812v544.908H0z"/></clipPath></defs></svg>