<svg width="89" height="319" fill="none" xmlns="http://www.w3.org/2000/svg"><path d="M81 0h1a7 7 0 0 1 7 7h-8V0Z" fill="#911331"/><path d="M0 11C0 4.925 4.925 0 11 0h70v319H0V11Z" fill="#CE234C"/><path d="m60.916 50.764-8.643 7.372 2.633 11.024a3.08 3.08 0 0 1-.107 1.804 3.118 3.118 0 0 1-1.103 1.44 3.174 3.174 0 0 1-3.496.14l-9.7-5.901-9.705 5.9a3.179 3.179 0 0 1-3.49-.144 3.118 3.118 0 0 1-1.101-1.438 3.078 3.078 0 0 1-.11-1.8l2.644-11.025-8.644-7.372a3.12 3.12 0 0 1-.977-1.522 3.09 3.09 0 0 1 .036-1.803c.191-.584.552-1.1 1.038-1.483a3.183 3.183 0 0 1 1.693-.669l11.333-.904 4.372-10.456c.236-.57.639-1.058 1.157-1.4a3.17 3.17 0 0 1 3.5 0c.517.342.92.83 1.157 1.4l4.37 10.456 11.332.904c.62.052 1.21.283 1.698.666.488.382.85.898 1.043 1.483a3.09 3.09 0 0 1 .038 1.805 3.12 3.12 0 0 1-.98 1.525l.012-.002ZM60.916 103.764l-8.643 7.372 2.633 11.024a3.08 3.08 0 0 1-.107 1.804 3.118 3.118 0 0 1-1.103 1.44 3.175 3.175 0 0 1-3.496.139l-9.7-5.9-9.705 5.9a3.176 3.176 0 0 1-3.49-.144 3.115 3.115 0 0 1-1.101-1.438 3.08 3.08 0 0 1-.11-1.801l2.644-11.024-8.644-7.372a3.12 3.12 0 0 1-.977-1.522 3.091 3.091 0 0 1 .036-1.803c.191-.584.552-1.1 1.038-1.483a3.183 3.183 0 0 1 1.693-.669l11.333-.904 4.372-10.456c.236-.57.639-1.058 1.157-1.4a3.17 3.17 0 0 1 3.5 0c.517.342.92.83 1.157 1.4l4.37 10.456 11.332.904c.62.052 1.21.283 1.698.666.488.382.85.898 1.043 1.483a3.09 3.09 0 0 1 .038 1.805 3.12 3.12 0 0 1-.98 1.525l.012-.002ZM60.916 156.764l-8.643 7.372 2.633 11.024a3.08 3.08 0 0 1-.107 1.804 3.118 3.118 0 0 1-1.103 1.44 3.175 3.175 0 0 1-3.496.139l-9.7-5.9-9.705 5.9a3.176 3.176 0 0 1-3.49-.144 3.115 3.115 0 0 1-1.101-1.438 3.08 3.08 0 0 1-.11-1.801l2.644-11.024-8.644-7.372a3.12 3.12 0 0 1-.977-1.522 3.091 3.091 0 0 1 .036-1.803c.191-.584.552-1.1 1.038-1.483a3.19 3.19 0 0 1 1.693-.669l11.333-.904 4.372-10.456c.236-.57.639-1.058 1.157-1.401a3.17 3.17 0 0 1 3.5 0c.517.343.92.831 1.157 1.401l4.37 10.456 11.332.904c.62.052 1.21.283 1.698.666.488.382.85.898 1.043 1.483a3.09 3.09 0 0 1 .038 1.805 3.12 3.12 0 0 1-.98 1.525l.012-.002ZM60.916 209.764l-8.643 7.372 2.633 11.024a3.08 3.08 0 0 1-.107 1.804 3.118 3.118 0 0 1-1.103 1.44 3.175 3.175 0 0 1-3.496.139l-9.7-5.9-9.705 5.9a3.176 3.176 0 0 1-3.49-.144 3.115 3.115 0 0 1-1.101-1.438 3.08 3.08 0 0 1-.11-1.801l2.644-11.024-8.644-7.372a3.12 3.12 0 0 1-.977-1.522 3.091 3.091 0 0 1 .036-1.803c.191-.584.552-1.1 1.038-1.483a3.19 3.19 0 0 1 1.693-.669l11.333-.904 4.372-10.456c.236-.57.639-1.058 1.157-1.401a3.17 3.17 0 0 1 3.5 0c.517.343.92.831 1.157 1.401l4.37 10.456 11.332.904c.62.052 1.21.283 1.698.666.488.382.85.898 1.043 1.483a3.09 3.09 0 0 1 .038 1.805 3.12 3.12 0 0 1-.98 1.525l.012-.002ZM60.916 262.764l-8.643 7.372 2.633 11.024a3.08 3.08 0 0 1-.107 1.804 3.118 3.118 0 0 1-1.103 1.44 3.175 3.175 0 0 1-3.496.139l-9.7-5.9-9.705 5.9a3.176 3.176 0 0 1-3.49-.144 3.115 3.115 0 0 1-1.101-1.438 3.08 3.08 0 0 1-.11-1.801l2.644-11.024-8.644-7.372a3.12 3.12 0 0 1-.977-1.522 3.091 3.091 0 0 1 .036-1.803c.191-.584.552-1.1 1.038-1.483a3.19 3.19 0 0 1 1.693-.669l11.333-.904 4.372-10.456c.236-.57.639-1.058 1.157-1.401a3.17 3.17 0 0 1 3.5 0c.517.343.92.831 1.157 1.401l4.37 10.456 11.332.904c.62.052 1.21.283 1.698.666.488.382.85.898 1.043 1.483a3.09 3.09 0 0 1 .038 1.805 3.12 3.12 0 0 1-.98 1.525l.012-.002Z" fill="#FFE922"/></svg>