<svg width="179" height="90" viewBox="0 0 179 90" fill="none" xmlns="http://www.w3.org/2000/svg">
<g filter="url(#filter0_d_49_889)">
<g filter="url(#filter1_d_49_889)">
<path fill-rule="evenodd" clip-rule="evenodd" d="M172.75 26.375C172.75 12.4988 161.501 1.25 147.625 1.25H34C17.4315 1.25 4 14.6815 4 31.25V49.25V51.5C4 68.0685 17.4315 81.5 34 81.5H67C75.2843 81.5 82 74.7843 82 66.5C82 58.2157 88.7157 51.5 97 51.5H147.625C161.501 51.5 172.75 40.2512 172.75 26.375Z" fill="#CE234C"/>
</g>
<path d="M91.8496 31.0703C92.0098 31.0703 92.1738 31.0566 92.3418 31.0293C92.5098 31.002 92.6465 30.9688 92.752 30.9297V31.6855C92.6387 31.7363 92.4805 31.7793 92.2773 31.8145C92.0781 31.8496 91.8828 31.8672 91.6914 31.8672C91.3516 31.8672 91.043 31.8086 90.7656 31.6914C90.4883 31.5703 90.2656 31.3672 90.0977 31.082C89.9336 30.7969 89.8516 30.4023 89.8516 29.8984V26.0898H88.9375V25.6152L89.8574 25.2344L90.2441 23.8398H90.8301V25.3281H92.7109V26.0898H90.8301V29.8691C90.8301 30.2715 90.9219 30.5723 91.1055 30.7715C91.293 30.9707 91.541 31.0703 91.8496 31.0703ZM97.0054 25.2109C97.5523 25.2109 98.021 25.332 98.4116 25.5742C98.8023 25.8164 99.1011 26.1562 99.3081 26.5938C99.5152 27.0273 99.6187 27.5352 99.6187 28.1172V28.7207H95.1831C95.1948 29.4746 95.3823 30.0488 95.7456 30.4434C96.1089 30.8379 96.6206 31.0352 97.2808 31.0352C97.687 31.0352 98.0464 30.998 98.3589 30.9238C98.6714 30.8496 98.9956 30.7402 99.3316 30.5957V31.4512C99.0073 31.5957 98.6851 31.7012 98.3648 31.7676C98.0484 31.834 97.6734 31.8672 97.2398 31.8672C96.6226 31.8672 96.0835 31.7422 95.6226 31.4922C95.1655 31.2383 94.8101 30.8672 94.5562 30.3789C94.3023 29.8906 94.1753 29.293 94.1753 28.5859C94.1753 27.8945 94.2905 27.2969 94.521 26.793C94.7554 26.2852 95.0835 25.8945 95.5054 25.6211C95.9312 25.3477 96.4312 25.2109 97.0054 25.2109ZM96.9937 26.0078C96.4741 26.0078 96.0601 26.1777 95.7515 26.5176C95.4429 26.8574 95.2593 27.332 95.2007 27.9414H98.5991C98.5952 27.5586 98.5347 27.2227 98.4175 26.9336C98.3042 26.6406 98.1304 26.4141 97.896 26.2539C97.6616 26.0898 97.3609 26.0078 96.9937 26.0078ZM103.28 28.4629L101.06 25.3281H102.173L103.866 27.8008L105.554 25.3281H106.655L104.435 28.4629L106.778 31.75H105.665L103.866 29.1309L102.056 31.75H100.954L103.28 28.4629ZM110.586 31.0703C110.747 31.0703 110.911 31.0566 111.079 31.0293C111.247 31.002 111.383 30.9688 111.489 30.9297V31.6855C111.376 31.7363 111.217 31.7793 111.014 31.8145C110.815 31.8496 110.62 31.8672 110.428 31.8672C110.088 31.8672 109.78 31.8086 109.503 31.6914C109.225 31.5703 109.003 31.3672 108.835 31.082C108.67 30.7969 108.588 30.4023 108.588 29.8984V26.0898H107.674V25.6152L108.594 25.2344L108.981 23.8398H109.567V25.3281H111.448V26.0898H109.567V29.8691C109.567 30.2715 109.659 30.5723 109.842 30.7715C110.03 30.9707 110.278 31.0703 110.586 31.0703ZM115.344 31.0703C115.504 31.0703 115.668 31.0566 115.836 31.0293C116.004 31.002 116.141 30.9688 116.246 30.9297V31.6855C116.133 31.7363 115.975 31.7793 115.772 31.8145C115.572 31.8496 115.377 31.8672 115.186 31.8672C114.846 31.8672 114.537 31.8086 114.26 31.6914C113.983 31.5703 113.76 31.3672 113.592 31.082C113.428 30.7969 113.346 30.4023 113.346 29.8984V26.0898H112.432V25.6152L113.352 25.2344L113.738 23.8398H114.324V25.3281H116.205V26.0898H114.324V29.8691C114.324 30.2715 114.416 30.5723 114.6 30.7715C114.787 30.9707 115.035 31.0703 115.344 31.0703ZM120.5 25.2109C121.046 25.2109 121.515 25.332 121.906 25.5742C122.296 25.8164 122.595 26.1562 122.802 26.5938C123.009 27.0273 123.113 27.5352 123.113 28.1172V28.7207H118.677C118.689 29.4746 118.877 30.0488 119.24 30.4434C119.603 30.8379 120.115 31.0352 120.775 31.0352C121.181 31.0352 121.541 30.998 121.853 30.9238C122.166 30.8496 122.49 30.7402 122.826 30.5957V31.4512C122.502 31.5957 122.179 31.7012 121.859 31.7676C121.543 31.834 121.168 31.8672 120.734 31.8672C120.117 31.8672 119.578 31.7422 119.117 31.4922C118.66 31.2383 118.304 30.8672 118.05 30.3789C117.796 29.8906 117.67 29.293 117.67 28.5859C117.67 27.8945 117.785 27.2969 118.015 26.793C118.25 26.2852 118.578 25.8945 119 25.6211C119.425 25.3477 119.925 25.2109 120.5 25.2109ZM120.488 26.0078C119.968 26.0078 119.554 26.1777 119.246 26.5176C118.937 26.8574 118.754 27.332 118.695 27.9414H122.093C122.089 27.5586 122.029 27.2227 121.912 26.9336C121.798 26.6406 121.625 26.4141 121.39 26.2539C121.156 26.0898 120.855 26.0078 120.488 26.0078ZM126.775 28.4629L124.554 25.3281H125.667L127.36 27.8008L129.048 25.3281H130.15L127.929 28.4629L130.273 31.75H129.159L127.36 29.1309L125.55 31.75H124.448L126.775 28.4629ZM134.081 31.0703C134.241 31.0703 134.405 31.0566 134.573 31.0293C134.741 31.002 134.878 30.9688 134.983 30.9297V31.6855C134.87 31.7363 134.712 31.7793 134.508 31.8145C134.309 31.8496 134.114 31.8672 133.923 31.8672C133.583 31.8672 133.274 31.8086 132.997 31.6914C132.719 31.5703 132.497 31.3672 132.329 31.082C132.165 30.7969 132.083 30.4023 132.083 29.8984V26.0898H131.169V25.6152L132.089 25.2344L132.475 23.8398H133.061V25.3281H134.942V26.0898H133.061V29.8691C133.061 30.2715 133.153 30.5723 133.337 30.7715C133.524 30.9707 133.772 31.0703 134.081 31.0703Z" fill="white"/>
<g clip-path="url(#clip0_49_889)">
<path d="M44.125 45.4523C50.8341 45.4523 56.2925 39.9939 56.2925 33.2847C56.2925 26.5756 50.8341 21.1172 44.125 21.1172C37.4158 21.1172 31.9574 26.5756 31.9574 33.2847C31.9574 39.9939 37.4158 45.4523 44.125 45.4523ZM44.125 22.5773C50.029 22.5773 54.8324 27.3807 54.8324 33.2847C54.8324 39.1888 50.029 43.9922 44.125 43.9922C38.2209 43.9922 33.4175 39.1888 33.4175 33.2847C33.4175 27.3807 38.2209 22.5773 44.125 22.5773Z" fill="white"/>
<path d="M44.125 39.1252C47.3454 39.1252 49.9654 36.5052 49.9654 33.2848C49.9654 30.0644 47.3454 27.4443 44.125 27.4443C40.9046 27.4443 38.2845 30.0644 38.2845 33.2848C38.2845 36.5052 40.9046 39.1252 44.125 39.1252ZM44.125 28.9044C46.5403 28.9044 48.5053 30.8695 48.5053 33.2848C48.5053 35.7001 46.5403 37.6651 44.125 37.6651C41.7097 37.6651 39.7447 35.7001 39.7447 33.2848C39.7447 30.8695 41.7097 28.9044 44.125 28.9044Z" fill="white"/>
<path d="M44.1249 36.2047C45.7351 36.2047 47.0451 34.8947 47.0451 33.2845C47.0451 32.8813 46.7184 32.5544 46.3151 32.5544C45.9118 32.5544 45.585 32.8813 45.585 33.2845C45.585 34.0896 44.93 34.7446 44.1249 34.7446C43.3198 34.7446 42.6648 34.0896 42.6648 33.2845C42.6648 32.4794 43.3198 31.8244 44.1249 31.8244C44.5282 31.8244 44.855 31.4975 44.855 31.0943C44.855 30.6911 44.5282 30.3643 44.1249 30.3643C42.5147 30.3643 41.2047 31.6743 41.2047 33.2845C41.2047 34.8947 42.5147 36.2047 44.1249 36.2047Z" fill="white"/>
<path d="M61.1595 51.8527V33.2846C61.1595 23.8917 53.5178 16.25 44.125 16.25C34.7321 16.25 27.0904 23.8917 27.0904 33.2846V51.8527C25.4262 52.1919 24.1702 53.6667 24.1702 55.4295V58.3497C24.1702 60.3625 25.8076 62 27.8204 62H60.4295C62.4423 62 64.0797 60.3625 64.0797 58.3497V55.4295C64.0797 53.6667 62.8237 52.1919 61.1595 51.8527ZM62.6196 58.3497C62.6196 59.5574 61.6371 60.5399 60.4295 60.5399H27.8204C26.6127 60.5399 25.6303 59.5574 25.6303 58.3497V55.4295C25.6303 54.2218 26.6127 53.2394 27.8204 53.2394H31.714C32.1172 53.2394 32.4441 52.9125 32.4441 52.5093C32.4441 52.1061 32.1172 51.7793 31.714 51.7793H28.5505V33.2846C28.5505 24.6968 35.5372 17.7101 44.125 17.7101C52.7128 17.7101 59.6994 24.6968 59.6994 33.2846V51.7793H34.6343C34.2311 51.7793 33.9042 52.1061 33.9042 52.5093C33.9042 52.9125 34.2311 53.2394 34.6343 53.2394H60.4295C61.6371 53.2394 62.6196 54.2218 62.6196 55.4295V58.3497Z" fill="white"/>
<path d="M60.4294 54.6997H27.8204C27.4172 54.6997 27.0903 55.0266 27.0903 55.4298C27.0903 55.8329 27.4172 56.1598 27.8204 56.1598H60.4294C60.8327 56.1598 61.1595 55.8329 61.1595 55.4298C61.1595 55.0266 60.8327 54.6997 60.4294 54.6997Z" fill="white"/>
</g>
</g>
<defs>
<filter id="filter0_d_49_889" x="0" y="1.25" width="176.75" height="88.25" filterUnits="userSpaceOnUse" color-interpolation-filters="sRGB">
<feFlood flood-opacity="0" result="BackgroundImageFix"/>
<feColorMatrix in="SourceAlpha" type="matrix" values="0 0 0 0 0 0 0 0 0 0 0 0 0 0 0 0 0 0 127 0" result="hardAlpha"/>
<feOffset dy="4"/>
<feGaussianBlur stdDeviation="2"/>
<feComposite in2="hardAlpha" operator="out"/>
<feColorMatrix type="matrix" values="0 0 0 0 0 0 0 0 0 0 0 0 0 0 0 0 0 0 0.25 0"/>
<feBlend mode="normal" in2="BackgroundImageFix" result="effect1_dropShadow_49_889"/>
<feBlend mode="normal" in="SourceGraphic" in2="effect1_dropShadow_49_889" result="shape"/>
</filter>
<filter id="filter1_d_49_889" x="2.35" y="0.35" width="176.55" height="88.05" filterUnits="userSpaceOnUse" color-interpolation-filters="sRGB">
<feFlood flood-opacity="0" result="BackgroundImageFix"/>
<feColorMatrix in="SourceAlpha" type="matrix" values="0 0 0 0 0 0 0 0 0 0 0 0 0 0 0 0 0 0 127 0" result="hardAlpha"/>
<feOffset dx="2.25" dy="3"/>
<feGaussianBlur stdDeviation="1.95"/>
<feComposite in2="hardAlpha" operator="out"/>
<feColorMatrix type="matrix" values="0 0 0 0 0 0 0 0 0 0 0 0 0 0 0 0 0 0 0.25 0"/>
<feBlend mode="normal" in2="BackgroundImageFix" result="effect1_dropShadow_49_889"/>
<feBlend mode="normal" in="SourceGraphic" in2="effect1_dropShadow_49_889" result="shape"/>
</filter>
<clipPath id="clip0_49_889">
<rect width="45.75" height="45.75" fill="white" transform="translate(21.25 16.25)"/>
</clipPath>
</defs>
</svg>
