<svg width="555" height="432" fill="none" xmlns="http://www.w3.org/2000/svg"><mask id="a" fill="#fff"><path fill-rule="evenodd" clip-rule="evenodd" d="M555 20c0-11.046-8.954-20-20-20H20C8.954 0 0 8.954 0 20v257c0 11.046 8.954 20 20 20h253c11.046 0 20 8.954 20 20v95c0 11.046 8.954 20 20 20h222c11.046 0 20-8.954 20-20V20Z"/></mask><path fill-rule="evenodd" clip-rule="evenodd" d="M555 20c0-11.046-8.954-20-20-20H20C8.954 0 0 8.954 0 20v257c0 11.046 8.954 20 20 20h253c11.046 0 20 8.954 20 20v95c0 11.046 8.954 20 20 20h222c11.046 0 20-8.954 20-20V20Z" fill="#fff"/><path d="M20 1h515v-2H20v2ZM1 277V20h-2v257h2Zm272 19H20v2h253v-2Zm21 116v-95h-2v95h2Zm241 19H313v2h222v-2Zm19-134v115h2V297h-2Zm0-16v16h2v-16h-2Zm0-261v261h2V20h-2Zm-19 413c11.598 0 21-9.402 21-21h-2c0 10.493-8.507 19-19 19v2Zm-243-21c0 11.598 9.402 21 21 21v-2c-10.493 0-19-8.507-19-19h-2Zm-19-114c10.493 0 19 8.507 19 19h2c0-11.598-9.402-21-21-21v2ZM-1 277c0 11.598 9.402 21 21 21v-2c-10.493 0-19-8.507-19-19h-2ZM535 1c10.493 0 19 8.507 19 19h2c0-11.598-9.402-21-21-21v2ZM20-1C8.402-1-1 8.402-1 20h2C1 9.507 9.507 1 20 1v-2Z" fill="#000" mask="url(#a)"/></svg>