<svg width="37" height="37" fill="none" xmlns="http://www.w3.org/2000/svg"><g clip-path="url(#a)"><path d="M31.002 5.196c.392.286.553.667.482 1.143l-4.572 27.429c-.06.345-.25.613-.571.803a1.096 1.096 0 0 1-.554.143c-.13 0-.273-.03-.428-.089l-8.09-3.304-4.32 5.268c-.215.274-.507.411-.876.411a.966.966 0 0 1-.393-.071 1.121 1.121 0 0 1-.544-.42 1.115 1.115 0 0 1-.205-.652v-6.232l15.428-18.91-19.09 16.517L.217 24.34c-.44-.166-.678-.494-.714-.982-.024-.476.167-.827.572-1.053L29.787 5.16c.179-.107.37-.161.572-.161.238 0 .452.065.642.196Z" fill="#fff" fill-opacity=".9"/></g><defs><clipPath id="a"><path fill="#fff" d="M0 0h37v37H0z"/></clipPath></defs></svg>