<svg width="97" height="97" fill="none" xmlns="http://www.w3.org/2000/svg"><g clip-path="url(#a)" fill="#fff"><path d="M42.446 17.702a2.578 2.578 0 0 1 3.007 2.062l1.418 7.604a2.578 2.578 0 1 1-5.07.946l-1.417-7.604a2.578 2.578 0 0 1 2.062-3.008ZM22.447 30.517a2.578 2.578 0 0 1 3.584-.668l5.503 3.768a2.582 2.582 0 1 1-2.92 4.259l-5.498-3.774a2.578 2.578 0 0 1-.669-3.584Zm-4.745 23.274a2.578 2.578 0 0 1 2.062-3.007l8.04-1.5a2.578 2.578 0 1 1 .946 5.07l-8.04 1.499a2.578 2.578 0 0 1-3.008-2.062Zm48.159-8.982a2.578 2.578 0 0 1 2.062-3.007l7.604-1.418a2.578 2.578 0 1 1 .945 5.069l-7.604 1.418a2.578 2.578 0 0 1-3.007-2.062Zm-.192-22.237a2.01 2.01 0 0 0-2.69.397l-17.81 22.08a4.692 4.692 0 1 0 7.796 5.15l13.346-25.03a2.011 2.011 0 0 0-.637-2.598h-.005Z"/><path fill-rule="evenodd" clip-rule="evenodd" d="M48.804 89.373A41.266 41.266 0 0 1 19.43 77.775 41.264 41.264 0 1 1 89.378 47.43a41.266 41.266 0 0 1-40.573 41.947v-.005ZM21.106 72.072A61.623 61.623 0 0 1 50.01 58.257c11.082-2.067 22.027-1.04 31.94 2.468a36.098 36.098 0 1 0-60.843 11.347Z"/></g><defs><clipPath id="a"><path fill="#fff" transform="rotate(-10.565 81.809 7.564)" d="M0 0h82.508v82.508H0z"/></clipPath></defs></svg>