<svg width="109" height="109" fill="none" xmlns="http://www.w3.org/2000/svg"><g clip-path="url(#a)" fill="#fff"><path d="M54.678 55.865a12.617 12.617 0 1 0 7.485 24.098 12.617 12.617 0 0 0-7.485-24.098Zm-1.421 13.653a5.408 5.408 0 1 1 10.328-3.208 5.408 5.408 0 0 1-10.328 3.208Z"/><path d="m65.807 24.535-15.71-11.944L19.84 57.237l-2.239.67.01.034-1.755.545L28.69 99.798l72.296-22.456L88.153 36.03l-3.312 1.03-12.576-17.23-6.458 4.705Zm11.76 14.784L43.044 50.041l22.99-16.752 4.72-3.304 6.813 9.332Zm-17.842-10.35L35.992 46.26l15.805-23.322 7.928 6.03ZM31.478 84.47l-4.641-14.942a10.843 10.843 0 0 0 4.344-8.253L77.106 47.01a10.847 10.847 0 0 0 8.257 4.343l4.641 14.942a10.846 10.846 0 0 0-4.343 8.256L39.743 88.816a10.851 10.851 0 0 0-8.265-4.344Z"/></g><defs><clipPath id="a"><path fill="#fff" transform="rotate(-17.255 84.57 12.832)" d="M0 0h86.518v86.518H0z"/></clipPath></defs></svg>