<svg width="60" height="74" fill="none" xmlns="http://www.w3.org/2000/svg"><path d="M40.875 29.385c5.885 1.218 10.383 3.653 13.495 7.306 3.179 3.585 4.769 7.948 4.769 13.088 0 4.194-1.15 8.084-3.45 11.669-2.232 3.585-5.682 6.494-10.35 8.726-4.6 2.164-10.315 3.246-17.147 3.246-5.005 0-9.977-.608-14.915-1.826C8.407 70.377 4.18 68.652.594 66.42L7.9 51.3c2.773 1.894 5.884 3.349 9.334 4.363 3.517 1.015 6.967 1.522 10.35 1.522 3.45 0 6.189-.642 8.218-1.928 2.03-1.285 3.044-3.111 3.044-5.479 0-4.6-3.619-6.899-10.857-6.899h-8.421V30.197L32.25 16.5H4.247V.976h51.34v12.581L40.875 29.385Z" fill="#fff"/></svg>